<svg xmlns="http://www.w3.org/2000/svg" viewBox="0 0 800 1200">
  <defs>
    <linearGradient id="sky" x1="0" x2="0" y1="0" y2="1">
      <stop offset="0%" stop-color="#16263b"/>
      <stop offset="100%" stop-color="#0c1623"/>
    </linearGradient>
    <linearGradient id="ground" x1="0" x2="0" y1="0" y2="1">
      <stop offset="0%" stop-color="#30465f"/>
      <stop offset="100%" stop-color="#1a2735"/>
    </linearGradient>
  </defs>
  <rect width="800" height="1200" fill="url(#sky)"/>
  <rect x="70" y="210" width="660" height="560" rx="26" fill="#1c2c42"/>
  <rect x="100" y="250" width="600" height="470" rx="18" fill="#22354d"/>
  <g fill="#314b66">
    <rect x="130" y="280" width="110" height="120" rx="10"/>
    <rect x="255" y="280" width="110" height="120" rx="10"/>
    <rect x="380" y="280" width="110" height="120" rx="10"/>
    <rect x="505" y="280" width="110" height="120" rx="10"/>
    <rect x="130" y="420" width="110" height="120" rx="10"/>
    <rect x="255" y="420" width="110" height="120" rx="10"/>
    <rect x="380" y="420" width="110" height="120" rx="10"/>
    <rect x="505" y="420" width="110" height="120" rx="10"/>
    <rect x="130" y="560" width="110" height="120" rx="10"/>
    <rect x="255" y="560" width="110" height="120" rx="10"/>
    <rect x="380" y="560" width="110" height="120" rx="10"/>
    <rect x="505" y="560" width="110" height="120" rx="10"/>
  </g>
  <rect x="420" y="420" width="50" height="18" rx="9" fill="#f6d07a"/>
  <rect x="0" y="760" width="800" height="440" fill="url(#ground)"/>
  <path d="M0 865h800" stroke="#5f748f" stroke-width="5" stroke-dasharray="10 12" opacity=".5"/>
  <path d="M0 950h800" stroke="#4b617a" stroke-width="4" opacity=".45"/>
  <path d="M110 820h470l-88 72H22z" fill="#465d76"/>
  <rect x="125" y="808" width="182" height="92" rx="18" fill="#c96e3e"/>
  <rect x="145" y="825" width="142" height="56" rx="12" fill="#e8b184"/>
  <circle cx="662" cy="844" r="13" fill="#f7d977"/>
  <text x="120" y="170" fill="#d7e4f5" font-family="sans-serif" font-size="36">宿舍楼下外卖柜</text>
</svg>
